<mxfile host="65bd71144e">
    <diagram id="vLke6YY6s8C17UQKvViL" name="Page-1">
        <mxGraphModel dx="446" dy="373" grid="1" gridSize="10" guides="1" tooltips="1" connect="1" arrows="1" fold="1" page="1" pageScale="1" pageWidth="850" pageHeight="1100" math="0" shadow="0">
            <root>
                <mxCell id="0"/>
                <mxCell id="1" parent="0"/>
                <mxCell id="8" value="" style="group;movable=0;resizable=0;rotatable=0;deletable=0;editable=0;connectable=0;" vertex="1" connectable="0" parent="1">
                    <mxGeometry x="300" y="60" width="190" height="260" as="geometry"/>
                </mxCell>
                <mxCell id="7" style="edgeStyle=none;rounded=0;html=1;exitX=1;exitY=0.57;exitDx=0;exitDy=0;exitPerimeter=0;endArrow=none;endFill=0;movable=0;resizable=0;rotatable=0;deletable=0;editable=0;connectable=0;" edge="1" parent="8" source="2">
                    <mxGeometry relative="1" as="geometry">
                        <mxPoint x="190" y="140" as="targetPoint"/>
                    </mxGeometry>
                </mxCell>
                <mxCell id="2" value="" style="verticalLabelPosition=bottom;shadow=0;dashed=0;align=center;html=1;verticalAlign=top;shape=mxgraph.electrical.opto_electronics.led_2;pointerEvents=1;fillColor=#00FF00;movable=0;resizable=0;rotatable=0;deletable=0;editable=0;connectable=0;" vertex="1" parent="8">
                    <mxGeometry y="100" width="100" height="70" as="geometry"/>
                </mxCell>
                <mxCell id="6" style="edgeStyle=none;rounded=0;html=1;exitX=1;exitY=0.57;exitDx=0;exitDy=0;exitPerimeter=0;endArrow=none;endFill=0;movable=0;resizable=0;rotatable=0;deletable=0;editable=0;connectable=0;" edge="1" parent="8" source="3">
                    <mxGeometry relative="1" as="geometry">
                        <mxPoint x="140" y="140" as="targetPoint"/>
                        <Array as="points">
                            <mxPoint x="140" y="230"/>
                        </Array>
                    </mxGeometry>
                </mxCell>
                <mxCell id="3" value="" style="verticalLabelPosition=bottom;shadow=0;dashed=0;align=center;html=1;verticalAlign=top;shape=mxgraph.electrical.opto_electronics.led_2;pointerEvents=1;fillColor=#0000ff;movable=0;resizable=0;rotatable=0;deletable=0;editable=0;connectable=0;" vertex="1" parent="8">
                    <mxGeometry y="190" width="100" height="70" as="geometry"/>
                </mxCell>
                <mxCell id="5" style="edgeStyle=none;html=1;exitX=1;exitY=0.57;exitDx=0;exitDy=0;exitPerimeter=0;endArrow=none;endFill=0;rounded=0;movable=0;resizable=0;rotatable=0;deletable=0;editable=0;connectable=0;" edge="1" parent="8" source="4">
                    <mxGeometry relative="1" as="geometry">
                        <mxPoint x="140" y="140" as="targetPoint"/>
                        <Array as="points">
                            <mxPoint x="140" y="40"/>
                        </Array>
                    </mxGeometry>
                </mxCell>
                <mxCell id="4" value="" style="verticalLabelPosition=bottom;shadow=0;dashed=0;align=center;html=1;verticalAlign=top;shape=mxgraph.electrical.opto_electronics.led_2;pointerEvents=1;fillColor=#FF0000;movable=0;resizable=0;rotatable=0;deletable=0;editable=0;connectable=0;" vertex="1" parent="8">
                    <mxGeometry width="100" height="70" as="geometry"/>
                </mxCell>
            </root>
        </mxGraphModel>
    </diagram>
</mxfile>